<svg xmlns="http://www.w3.org/2000/svg" viewBox="0 0 16 20" x="0px" y="0px"><path fill-rule="evenodd" d="M11.7209302,9.22093023 C11.7209302,8.49534884 12.2976744,7.91860465 13.0232558,7.91860465 C13.3767442,7.91860465 13.6930233,8.04883721 13.9534884,8.29069767 C14.1953488,8.53255814 14.3255814,8.86744186 14.3255814,9.22093023 C14.3255814,9.94651163 13.7488372,10.5232558 13.0232558,10.5232558 C12.6697674,10.5232558 12.3534884,10.3930233 12.0930233,10.1511628 C11.8511628,9.89069767 11.7209302,9.5744186 11.7209302,9.22093023 L11.7209302,9.22093023 Z M13.2837209,6.98837209 C11.8697674,6.69069767 9.74883721,6.61627907 9.74883721,6.61627907 C9.74883721,6.61627907 8.7255814,5.87209302 7.60930233,5.5 L7.49767442,5.5744186 L7.36744186,5.74186047 C7.36744186,5.74186047 8.33488372,6.11395349 8.68837209,6.76511628 L7.72093023,6.78372093 L7.72093023,6.52325581 L7.79534884,6.3 C7.81395349,6.24418605 7.77674419,6.18837209 7.73953488,6.16976744 C7.68372093,6.15116279 7.62790698,6.18837209 7.60930233,6.24418605 L7.42325581,6.80232558 L5.41395349,6.80232558 C5.41395349,6.80232558 5.09767442,6.2627907 4.78139535,6.24418605 L4.70697674,6.24418605 C4.55813953,5.96511628 4.33488372,5.5744186 4.33488372,5.5744186 C4.33488372,5.5744186 4.29767442,5.5 4.22325581,5.5 L4.14883721,5.5 C4.14883721,5.5 4.05581395,5.5 4.09302326,5.63023256 L4.14883721,5.83488372 C3.29302326,5.5744186 2.3255814,5.29534884 2.12093023,5.74186047 C2.21395349,5.72325581 2.30697674,5.72325581 2.4372093,5.72325581 C3.03255814,5.72325581 3.77674419,5.94651163 4.24186047,6.09534884 L4.31627907,6.3372093 C3.81395349,6.05813953 1.82325581,5.66744186 1.86046512,6.18837209 C1.95348837,6.16976744 2.04651163,6.16976744 2.17674419,6.16976744 C2.86511628,6.16976744 3.68372093,6.2627907 4.39069767,6.57906977 L4.46511628,6.80232558 C4.46511628,6.80232558 3.77674419,6.39302326 2.4,6.39302326 C1.20930233,6.39302326 0.688372093,6.63488372 0.186046512,7.60232558 C0.111627907,7.75116279 -0.0558139535,8.29069767 0.0186046512,8.71860465 C0.0744186047,9.10930233 0.186046512,9.5372093 0.353488372,9.5372093 L0.520930233,9.5372093 L0.781395349,9.5372093 C0.762790698,9.44418605 0.744186047,9.33255814 0.744186047,9.22093023 C0.744186047,8.29069767 1.46976744,7.54651163 2.41860465,7.54651163 C2.86511628,7.54651163 3.2744186,7.71395349 3.60930233,8.01162791 C3.9255814,8.32790698 4.09302326,8.75581395 4.09302326,9.22093023 C4.09302326,9.33255814 4.0744186,9.4627907 4.05581395,9.5744186 L4.55813953,9.5744186 L11.0139535,9.5744186 L11.3860465,9.5744186 C11.3674419,9.4627907 11.3488372,9.35116279 11.3488372,9.22093023 C11.3488372,8.29069767 12.0744186,7.54651163 13.0232558,7.54651163 C13.4697674,7.54651163 13.8790698,7.71395349 14.1953488,8.01162791 C14.5116279,8.32790698 14.6790698,8.75581395 14.6790698,9.22093023 C14.6790698,9.35116279 14.6604651,9.4627907 14.6418605,9.59302326 L15.0325581,9.59302326 C15.0325581,9.59302326 15.8883721,9.22093023 15.9813953,8.58837209 C16.0930233,7.91860465 14.6976744,7.26744186 13.2837209,6.98837209 Z M1.11627907,9.22093023 C1.11627907,8.49534884 1.69302326,7.91860465 2.41860465,7.91860465 C2.77209302,7.91860465 3.08837209,8.04883721 3.34883721,8.29069767 C3.59069767,8.53255814 3.72093023,8.86744186 3.72093023,9.22093023 C3.72093023,9.94651163 3.14418605,10.5232558 2.41860465,10.5232558 C2.06511628,10.5232558 1.74883721,10.3930233 1.48837209,10.1511628 C1.24651163,9.89069767 1.11627907,9.5744186 1.11627907,9.22093023 L1.11627907,9.22093023 Z"/><text x="0" y="31" fill="#000000" font-size="5px" font-weight="bold" font-family="'Helvetica Neue', Helvetica, Arial-Unicode, Arial, Sans-serif">Created by Ilusteo</text><text x="0" y="36" fill="#000000" font-size="5px" font-weight="bold" font-family="'Helvetica Neue', Helvetica, Arial-Unicode, Arial, Sans-serif">from the Noun Project</text></svg>