<svg xmlns="http://www.w3.org/2000/svg" version="1.1" viewBox="-5.0 -10.0 110.0 135.0">
 <g>
  <path d="m90 53.699v0-0.30078c-0.19922-1.1992-0.69922-2.3008-1.6016-3.1992l-0.10156-0.10156c-1-1-2.3984-1.8008-4-2.1016-4.1016-0.69922-8.5-1.3008-13.199-1.6016l-13.199-8.8984c-1-0.69922-2.3008-1.1016-3.6016-1.1016h-4.6016l-0.69922-3.8008c-0.10156-0.30078-0.30078-0.5-0.60156-0.5h-2.3984c-0.30078 0-0.60156 0.19922-0.60156 0.5l-0.69922 3.8008h-6.3984c-1.5 0-3 0.5-4.1016 1.5l-8.1992 7c-0.80078 0.60156-1.8008 1.1016-2.8984 1.1016l-8.8008 0.69922c-2.3008 0.19922-4.1016 1.8008-4.1992 3.8008v0.10156 7.1016c0 2 1.6016 3.6016 3.8008 4l7.1992 1c0.60156 3.1016 3.3008 5.3984 6.6016 5.3984 3.1016 0 5.6016-2.1016 6.3984-4.8008h34.699c0.80078 2.8008 3.3984 4.8008 6.3984 4.8008 3.1016 0 5.6016-2.1016 6.3984-4.8008h5.1016c1.8008 0 3.3008-1.5 3.3008-3.3008v-5.6992c0.003906-0.39844 0.003906-0.49609 0.003906-0.59766zm-1.5-0.80078h-1.3008c-1.1016 0-2-0.69922-2.3008-1.6992h2.6992c0.40234 0.5 0.70312 1.1016 0.90234 1.6992zm-42-19.598h1.3008l0.60156 3.1016h-2.3984zm-35.199 17.898h2v1.6992h-2zm9.5977 10-6.8984-1c-1.6016-0.19922-2.6992-1.3008-2.6992-2.6016 0.69922 0.60156 1.5 1 2.5 1.1992l7.1992 1c0 0.50391-0.10156 0.90234-0.10156 1.4023zm6.7031 5.5c-3 0-5.3984-2.3984-5.3984-5.3984s2.3984-5.3984 5.3984-5.3984 5.3984 2.3984 5.3984 5.3984c0 2.8984-2.3984 5.3984-5.3984 5.3984zm41-4.8984h-34.301c0-0.19922 0.10156-0.39844 0.10156-0.60156 0-0.30078-0.10156-0.60156-0.10156-0.89844h34.301c0 0.30078-0.10156 0.60156-0.10156 0.89844 0 0.30078 0 0.40234 0.10156 0.60156zm6.5977 4.8984c-3 0-5.3984-2.3984-5.3984-5.3984s2.3984-5.3984 5.3984-5.3984 5.3984 2.3984 5.3984 5.3984c0.003906 2.8984-2.3984 5.3984-5.3984 5.3984zm13.5-6.8008c0 1.1016-0.89844 2-2 2h-4.8008c0-0.19922 0.10156-0.39844 0.10156-0.60156 0-0.30078-0.10156-0.60156-0.10156-0.89844h4.8984c0.69922 0 1.3984-0.30078 2-0.69922l0.003906 0.19922zm0-2.7969c0 1.1016-0.89844 1.8984-2 1.8984h-5.1992c-0.89844-2.6016-3.3984-4.5-6.3008-4.5-2.8984 0-5.3984 1.8984-6.3008 4.5h-21.098v-9.8008c0-0.39844-0.30078-0.69922-0.69922-0.69922-0.39844 0-0.69922 0.30078-0.69922 0.69922v9.8008h-12.504c-0.89844-2.6016-3.3984-4.5-6.3008-4.5-2.6992 0-5.1016 1.6016-6.1016 4l-7.5-1c-1.6016-0.19922-2.6992-1.3008-2.6992-2.6992v-0.60156h2.7031c0.39844 0 0.69922-0.30078 0.69922-0.69922v-3c0-0.39844-0.30078-0.69922-0.69922-0.69922h-2.6016c0.39844-1 1.5-1.8008 2.8008-1.8984l8.8008-0.69922c1.3984-0.10156 2.6016-0.60156 3.6016-1.5l8.1992-7c0.89844-0.69922 2.1016-1.1016 3.3008-1.1016h16c1.1016 0 2.1016 0.30078 2.8984 0.80078l13.301 9c0.10156 0.10156 0.19922 0.10156 0.30078 0.10156 4.6992 0.39844 9.1992 0.89844 13.199 1.6016 0.69922 0.10156 1.3008 0.30078 1.8984 0.60156h-1.6992c-0.39844 0-0.69922 0.30078-0.69922 0.69922 0 2 1.6992 3.6992 3.6992 3.6992h1.5v2.9961z"/>
  <path d="m66.5 46.398-10.102-6.8008c-0.59766-0.39844-1.3984-0.59766-2.1992-0.59766h-16c-0.89844 0-1.8008 0.30078-2.3984 0.80078l-7.3008 6.1992c-0.19922 0.19922-0.30078 0.39844-0.19922 0.60156 0.10156 0.19922 0.19922 0.39844 0.5 0.5 1.3008 0.30078 2.8984 0.5 4.6992 0.5h0.19922 32.398c0.30078 0 0.5-0.19922 0.60156-0.5 0.10156-0.20312 0-0.5-0.19922-0.70312zm-20.102-0.097657h-12.699c-1.1992 0-2.3008-0.10156-3.3008-0.19922l6.1992-5.3008c0.39844-0.30078 1-0.5 1.6016-0.5h8.3008v6zm1.4023 0v-6h6.5c0.5 0 1.1016 0.10156 1.3984 0.39844l8.3008 5.6016z"/>
  <path d="m53.801 50h-2.1016c-0.39844 0-0.69922 0.30078-0.69922 0.69922 0 0.39844 0.30078 0.69922 0.69922 0.69922h2.1016c0.39844 0 0.69922-0.30078 0.69922-0.69922 0-0.39844-0.30078-0.69922-0.69922-0.69922z"/>
  <path d="m36.898 50h-2.1016c-0.39844 0-0.69922 0.30078-0.69922 0.69922 0 0.39844 0.30078 0.69922 0.69922 0.69922h2.1016c0.39844 0 0.69922-0.30078 0.69922-0.69922 0.003906-0.39844-0.29688-0.69922-0.69922-0.69922z"/>
 </g>
<text x="0.0" y="117.5" font-size="5.0" font-weight="bold" font-family="Arbeit Regular, Helvetica, Arial-Unicode, Arial, Sans-serif" fill="#000000">Created by ainul muttaqin</text><text x="0.0" y="122.5" font-size="5.0" font-weight="bold" font-family="Arbeit Regular, Helvetica, Arial-Unicode, Arial, Sans-serif" fill="#000000">from Noun Project</text></svg>