<svg xmlns="http://www.w3.org/2000/svg" xmlns:xlink="http://www.w3.org/1999/xlink" xml:space="preserve" style="shape-rendering:geometricPrecision;text-rendering:geometricPrecision;image-rendering:optimizeQuality;" viewBox="0 0 0.333331 0.41666375" x="0px" y="0px" fill-rule="evenodd" clip-rule="evenodd"><defs><style type="text/css">
   
    .fil0 {fill:black}
    .fil1 {fill:#1F1A17;fill-rule:nonzero}
   
  </style></defs><g><path class="fil0" d="M0.263268 0.153402l-0.0161299 -0.0149173c-0.0023189,-0.00167717 -0.00648031,-0.00566929 -0.0167362,-0.0062126l-0.157547 0c-0.0132165,0 -0.0172441,0.00875591 -0.022752,0.0202717l-0.0282638 0.000114173c-0.0080315,-0.00030315 -0.00752756,0.010748 -0.00751181,0.0188819l0.0297756 3.93701e-005c0.0031811,-0.00404331 0.00811811,-0.00664173 0.0136614,-0.00664173 0.00555906,0 0.0105079,0.00261811 0.013689,0.0066811l0.188425 0.000267717c0.00316929,-0.00421654 0.0082126,-0.00694882 0.0138937,-0.00694882 0.00569685,0 0.0107559,0.00274803 0.0139213,0.00698819l0.0305945 4.33071e-005c3.93701e-006,-0.00827953 -0.00185039,-0.00900394 -0.00758268,-0.0151024l-0.047437 -0.00346457zm-0.031563 -0.0173622l-0.152138 -0.000409449c-0.0100787,-2.75591e-005 -0.013189,0.0105354 -0.0159921,0.0180512l0.194638 0c-0.00732283,-0.00743701 -0.0150236,-0.0176102 -0.0265079,-0.0176417z"/><path class="fil0" d="M0.253449 0.151681l-0.074437 0 0 -0.0137913 0.0526929 0.000141732c0.00924016,2.3622e-005 0.0159291,0.00760236 0.0217441,0.0136496z"/><polygon class="fil0" points="0.126917,0.151681 0.126917,0.137748 0.17698,0.137886 0.17698,0.151681 "/><path class="fil0" d="M0.124886 0.137744l0 0.013937 -0.0584055 0c0.00256693,-0.00684646 0.00560236,-0.0140787 0.0130866,-0.0140591l0.0453189 0.000122047z"/><path class="fil0" d="M0.0428661 0.173531l-0.0285118 -7.08661e-005c-0.0023189,-0.000149606 -0.00566929,0.00885039 -0.000566929,0.0129331l0.0270551 0c-0.000291339,-0.00126772 -0.000448819,-0.00258268 -0.000448819,-0.00393701 0,-0.00326378 0.000901575,-0.0063189 0.00247244,-0.0089252z"/><path class="fil0" d="M0.255425 0.174047l-0.185874 -0.000444882c0.00154331,0.00259055 0.00242913,0.00562205 0.00242913,0.00885433 0,0.00135433 -0.00015748,0.00266929 -0.000448819,0.00393701l0.182169 0c-0.000291339,-0.00126772 -0.000448819,-0.00258268 -0.000448819,-0.00393701 0,-0.00305118 0.000791339,-0.00591732 0.00217323,-0.00840945z"/><path class="fil0" d="M0.0644488 0.176083c-0.00587795,-0.00587795 -0.0159882,-0.00170079 -0.0159882,0.00662598 0,0.00832283 0.0101102,0.0125 0.0159882,0.00662205 0.00365748,-0.00365748 0.00365748,-0.00959055 0,-0.013248zm-0.00567717 0.00445276l-0.000944882 -0.000389764 -0.00096063 0.000397638 -0.00229921 -0.00416535c0.00203543,-0.00104724 0.0044685,-0.00105118 0.00650787,-7.87402e-006l-0.00230315 0.00416535zm-0.00318898 0.00139764l-0.000318898 0.000775591 0.000413386 0.001 -0.00416142 0.00229528c-0.00103937,-0.00198425 -0.0010748,-0.00435827 -0.000110236,-0.00637402l0.00417717 0.00230315zm0.00140945 0.00299213l0.000834646 0.000346457 0.000818898 -0.00034252 0.00230709 0.00417717c-0.00197244,0.00096063 -0.00429528,0.00096063 -0.00626378,-7.87402e-006l0.00230315 -0.00417323zm0.00298031 -0.00120866l0.000417323 -0.00100787 -0.000322835 -0.000783465 0.00417717 -0.00230315c0.000972441,0.00201969 0.000933071,0.00440157 -0.000110236,0.00638976l-0.00416142 -0.00229528z"/><path class="fil0" d="M0.0581614 0.167846c-0.00409449,-9.44882e-005 -0.00785433,0.00148425 -0.0106024,0.00411024 -0.00275197,0.00262598 -0.00450394,0.00631102 -0.00459449,0.0104134 -9.84252e-005,0.00409843 0.00148819,0.00785433 0.00411024,0.0106024 0.00262598,0.00275197 0.00631102,0.00450394 0.0104134,0.00459449 0.00409843,9.44882e-005 0.00785433,-0.00148425 0.0106024,-0.00411024 0.00275197,-0.00262598 0.00450394,-0.00631102 0.00459449,-0.0104094 9.84252e-005,-0.00409843 -0.00148425,-0.00785827 -0.00411024,-0.0106063 -0.00262598,-0.00275197 -0.00631102,-0.00450394 -0.0104134,-0.00459449zm-0.00752756 0.00733071c0.0019252,-0.00183465 0.00456299,-0.00294488 0.00743307,-0.00287795 0.00287008,6.29921e-005 0.00544882,0.00129134 0.0072874,0.00321654 0.00183465,0.0019252 0.00294488,0.00456299 0.00287795,0.00743307 -6.69291e-005,0.00287008 -0.00129134,0.00544882 -0.0032126,0.0072874 -0.0019252,0.00183858 -0.00455906,0.00294094 -0.00743701,0.00287795 -0.00287008,-6.29921e-005 -0.00544488,-0.00129134 -0.00728346,-0.00321654 -0.00184252,-0.0019252 -0.00294882,-0.00455906 -0.00288189,-0.00743307 6.29921e-005,-0.00286614 0.00129134,-0.00544488 0.00321654,-0.0072874z"/><path class="fil0" d="M0.319295 0.174193l-0.0302874 -7.48031e-005c0.00135827,0.00247638 0.00212992,0.0053189 0.00212992,0.00833858 0,0.00135433 -0.000153543,0.00266929 -0.000448819,0.00393701l0.0274685 0c0.0056063,0.000224409 0.00511811,-0.0124291 0.0011378,-0.0122008z"/><path class="fil0" d="M0.280457 0.176083c-0.00587795,-0.00587795 -0.0159882,-0.00170079 -0.0159882,0.00662598 0,0.00832283 0.0101102,0.0125 0.0159882,0.00662205 0.00365748,-0.00365748 0.00365748,-0.00959055 0,-0.013248zm-0.00567323 0.00445276l-0.000948819 -0.000389764 -0.00096063 0.000397638 -0.00229921 -0.00416535c0.00203543,-0.00104724 0.0044685,-0.00105118 0.00650787,-7.87402e-006l-0.00229921 0.00416535zm-0.00319291 0.00139764l-0.000318898 0.000775591 0.000417323 0.001 -0.00416535 0.00229528c-0.00103937,-0.00198425 -0.0010748,-0.00435827 -0.000110236,-0.00637402l0.00417717 0.00230315zm0.00140945 0.00299213l0.000834646 0.000346457 0.000818898 -0.00034252 0.00230709 0.00417717c-0.00197244,0.00096063 -0.00429528,0.00096063 -0.00626378,-7.87402e-006l0.00230315 -0.00417323zm0.00298031 -0.00120866l0.000417323 -0.00100787 -0.000322835 -0.000783465 0.00417717 -0.00230315c0.000972441,0.00201969 0.000933071,0.00440157 -0.000110236,0.00638976l-0.00416142 -0.00229528z"/><path class="fil0" d="M0.274169 0.167846c-0.00409449,-9.44882e-005 -0.00785433,0.00148425 -0.0106024,0.00411024 -0.00275197,0.00262598 -0.00450394,0.00631102 -0.00459449,0.0104134 -9.84252e-005,0.00409843 0.00148819,0.00785433 0.00411024,0.0106024 0.00262598,0.00275197 0.00631102,0.00450394 0.0104134,0.00459449 0.00409843,9.44882e-005 0.00785433,-0.00148425 0.0106024,-0.00411024 0.00275197,-0.00262598 0.00450394,-0.00631102 0.00459449,-0.0104094 9.84252e-005,-0.00409843 -0.00148425,-0.00785827 -0.00411024,-0.0106063 -0.00262598,-0.00275197 -0.00631102,-0.00450394 -0.0104134,-0.00459449zm-0.00752756 0.00733071c0.0019252,-0.00183465 0.00456299,-0.00294488 0.00743701,-0.00287795 0.00286614,6.29921e-005 0.00544488,0.00129134 0.00728346,0.00321654 0.00183465,0.0019252 0.00294488,0.00456299 0.00287795,0.00743307 -6.69291e-005,0.00287008 -0.00129134,0.00544882 -0.0032126,0.0072874 -0.0019252,0.00183858 -0.00455906,0.00294094 -0.00743701,0.00287795 -0.00287008,-6.29921e-005 -0.00544488,-0.00129134 -0.00728346,-0.00321654 -0.00184252,-0.0019252 -0.00294882,-0.00455906 -0.00288189,-0.00743307 6.29921e-005,-0.00286614 0.00129134,-0.00544488 0.00321654,-0.0072874z"/><polygon class="fil1" points="0.0111102,0.197866 0.0110079,0.201063 0.31889,0.198091 "/></g><text x="0" y="15.333331" fill="#000000" font-size="5px" font-weight="bold" font-family="'Helvetica Neue', Helvetica, Arial-Unicode, Arial, Sans-serif">Created by Abdul Wahhab</text><text x="0" y="20.333331" fill="#000000" font-size="5px" font-weight="bold" font-family="'Helvetica Neue', Helvetica, Arial-Unicode, Arial, Sans-serif">from the Noun Project</text></svg>