<svg xmlns="http://www.w3.org/2000/svg" xmlns:xlink="http://www.w3.org/1999/xlink" version="1.1" x="0px" y="0px" viewBox="0 0 90 62.5" enable-background="new 0 0 90 50" xml:space="preserve"><g><path d="M71.966,32.817c-3.538,0-6.409,2.865-6.409,6.406c0,3.546,2.871,6.411,6.409,6.411s6.411-2.865,6.411-6.411   C78.377,35.683,75.504,32.817,71.966,32.817z M71.966,42.701c-1.916,0-3.472-1.553-3.472-3.475c0-1.919,1.556-3.472,3.472-3.472   s3.472,1.553,3.472,3.472C75.438,41.148,73.882,42.701,71.966,42.701z"/><path d="M18.105,32.817c-3.538,0-6.409,2.865-6.409,6.406c0,3.546,2.871,6.411,6.409,6.411s6.411-2.865,6.411-6.411   C24.516,35.683,21.643,32.817,18.105,32.817z M18.105,42.701c-1.915,0-3.472-1.553-3.472-3.475c0-1.919,1.557-3.472,3.472-3.472   c1.917,0,3.472,1.553,3.472,3.472C21.577,41.148,20.021,42.701,18.105,42.701z"/><path d="M88.411,28.91c-0.252-1.502-1.648-4.701-8.688-7.117l-9.847-2.742c0,0-10.542-9.141-19.703-10.187h-38.25   c0,0-8.055-0.367-9.958,14.704c0,0-1.403,11.878,1.878,14.571c0.523,0.7,1.284,1.151,2.142,1.151h4.724   c-0.009-0.15-0.023-0.301-0.023-0.453c0-4.111,3.333-7.444,7.445-7.444s7.445,3.333,7.445,7.444c0,0.152-0.014,0.303-0.023,0.453   H64.57c-0.009-0.15-0.022-0.301-0.022-0.453c0-4.111,3.333-7.444,7.444-7.444s7.444,3.333,7.444,7.444   c0,0.152-0.014,0.303-0.022,0.453h6.732v-0.062c1.138-0.253,2.038-1.289,2.264-2.614h0.056V28.91H88.411z M44.923,12.584   l-1.133,7.998l-17.97-1.237l1.02-7.199L44.923,12.584z M12.035,18.397c-2.014-0.392-1.79-2.089-1.79-2.089   c0.896-4.832,5.146-4.439,5.146-4.439l9.542,0.231l-1.008,7.116L12.035,18.397z M63.277,21.923l-17.593-1.21l1.145-8.082   l0.895,0.021c5.706-0.13,13.65,4.31,16.447,6.92S63.277,21.923,63.277,21.923z"/></g><text x="0" y="65" fill="#000000" font-size="5px" font-weight="bold" font-family="'Helvetica Neue', Helvetica, Arial-Unicode, Arial, Sans-serif">Created by Jonathan Li</text><text x="0" y="70" fill="#000000" font-size="5px" font-weight="bold" font-family="'Helvetica Neue', Helvetica, Arial-Unicode, Arial, Sans-serif">from the Noun Project</text></svg>