<svg xmlns="http://www.w3.org/2000/svg" xmlns:xlink="http://www.w3.org/1999/xlink" version="1.1" x="0px" y="0px" viewBox="0 0 100 125" style="enable-background:new 0 0 100 100;" xml:space="preserve"><path d="M99.2,60.2c-0.3-0.2-0.1-1.1-0.1-1.1s0.7-4.5,0.6-4.9c0-0.4-1.4-2-1.4-2s1.3-3.9,0.3-4.8c-0.9-0.9-4.9-3.1-7.6-3.4  s-17.6-1.8-17.6-1.8S58.8,31.6,46.5,31c-12.3-0.6-24.7,0-24.7,0s-4.3,0.1-11.7,4.4l-6.9,5.6c0,0-0.1,0.1-0.1,0.1  c-0.1,0.1-0.2,0.2-0.3,0.3c0.1-0.1,0.1-0.1,0,0c-0.1,0.2-0.3,0.4-0.4,0.7c-0.1,0.1-0.1,0.2-0.1,0.3c0,0,0,0,0,0c0,0.1,0,0.1-0.1,0.2  c-0.1,0.2-0.1,0.3-0.1,0.5v5.3c0,0,0,0,0,0c0,0.2,0,0.5-0.1,0.7c-0.3,0.3-0.6,0.5-0.6,0.5s-1.1,0.6-1.1,1.1c0,0-0.3,5.6,0.3,7.3  c0,0,0,0,0,0c0,0,0,0,0,0c0,0.1,0.1,0.3,0.2,0.3c0,0,0,0,0,0c0.5,0.9,1.7,1.9,4.3,2.3c0,0,2.3,0.8,3.7,0.8c0.1,0,0.3,0,0.5,0  c0.1-4.7,4-8.5,8.8-8.5c4.9,0,8.8,3.9,8.8,8.8c0,0.5-0.1,1.1-0.1,1.6c0.7,0.1,1.2,0.1,1.2,0.1l44.5,0.4c-0.2-0.7-0.3-1.4-0.3-2.1  c0-4.9,3.9-8.8,8.8-8.8c4.9,0,8.8,3.9,8.8,8.8c0,0.4,0,0.9-0.1,1.3l4-0.3c0,0,5.1-0.5,5.8-1.9C99.4,60.7,99.5,60.4,99.2,60.2z   M20.4,36.1c0,0,1.5-2.1,3.2-2.3c1.8-0.2,5.3-0.4,5.3-0.4l0.4,7.1L20.4,36.1z M30.3,40.9l-0.6-7.7l11.4-0.1l0.8,8.2L30.3,40.9z   M46,41.6l-2.1-8.4c0,0,14.4-0.4,23.5,9.6L46,41.6z M97.4,49.3c-0.2,0.3-1.7,1.5-2,1.6c-0.3,0.1-1.5,0.2-2.2,0  c-0.8-0.2-1.6-0.7-1.7-0.8c-0.1-0.1-3.3-3.1-3.3-3.1s7.9,0.9,9.2,1.4C97.4,48.3,97.6,49,97.4,49.3z"/><g><circle cx="81" cy="61.5" r="7.8"/><circle cx="18.2" cy="61.5" r="7.8"/></g><text x="0" y="115" fill="#000000" font-size="5px" font-weight="bold" font-family="'Helvetica Neue', Helvetica, Arial-Unicode, Arial, Sans-serif">Created by Manon Jaoeun</text><text x="0" y="120" fill="#000000" font-size="5px" font-weight="bold" font-family="'Helvetica Neue', Helvetica, Arial-Unicode, Arial, Sans-serif">from the Noun Project</text></svg>