<svg xmlns="http://www.w3.org/2000/svg" version="1.1" viewBox="-5.0 -10.0 110.0 135.0">
 <g>
  <path d="m76.562 62.531c-6.1797 0.16016-6.1797 9.2148 0 9.375 6.1797-0.16016 6.1797-9.2148 0-9.375z"/>
  <path d="m23.438 62.531c-6.1797 0.16016-6.1797 9.2148 0 9.375 6.1797-0.16016 6.1797-9.2148 0-9.375z"/>
  <path d="m42.188 51.594v-10.883c0-0.86328-0.69922-1.5625-1.5625-1.5625l-10.512-0.054688c-6.7734 0.058594-10.5 6.7812-8.1875 12.895 0.17969 0.6875 0.80078 1.168 1.5117 1.168h17.191c0.85938-0.003906 1.5586-0.70312 1.5586-1.5625z"/>
  <path d="m45.312 53.078 14.062-0.046875v-3c0-1.7188 1.4062-3.125 3.125-3.125h1.625l-9.9258-5.7852c-2.2812-1.3281-4.8711-2.0273-7.5117-2.0273h-1.375c-0.85938 0-1.5625 0.70312-1.5625 1.5625v10.859c0 0.875 0.70312 1.5625 1.5625 1.5625z"/>
  <path d="m48.438 54.719c-2.0547 0.035156-2.0547 3.0898 0 3.125h3.125c2.0547-0.035156 2.0547-3.0898 0-3.125h-3.125z"/>
  <path d="m39.062 56.281c0-0.86328-0.69922-1.5625-1.5625-1.5625h-3.125c-0.86328 0-1.5625 0.69922-1.5625 1.5625s0.69922 1.5625 1.5625 1.5625h3.125c0.86328 0 1.5625-0.69922 1.5625-1.5625z"/>
  <path d="m88.109 48.219-17.266-2.2656-14.25-8.7344c-2.4922-1.5312-5.293-2.4492-8.1562-2.7188v-7.9062c0-1.7227-1.4023-3.125-3.125-3.125h-1.5625c-1.7227 0-3.125 1.4023-3.125 3.125v7.8125h-10.5c-4.7031 0-9.25 1.7656-12.812 4.9688-2.0312 1.6953-4.8633 5.0938-7.6875 5.2812-0.20703 0-1.0664 0.37891-1.2812 0.42188-2.1641 0.74219-3.7266 2.793-3.9531 5.0625l-0.96875 9.2656-0.28125 2.6562c-0.13672 4.5234 3.4492 8.2891 7.7969 8.2812h3.6719c2.7891 8.2539 14.867 8.2461 17.656 0h35.469c2.7891 8.2539 14.867 8.2461 17.656 0h5.3438c4 0 6.0938-3.9062 6.0938-7.7656 0.023437-2.7969 0.32031-6.7891-1.4375-9.4219-1.5312-2.6406-4.1719-4.5312-7.2812-4.9375zm-59.25 22.125c-3.1406 5.4688-11.688 3.2344-11.672-3.125 0-3.4531 2.7969-6.25 6.25-6.25 4.7109-0.13281 7.832 5.4023 5.4219 9.375zm53.125 0c-3.1406 5.4688-11.688 3.2344-11.672-3.125 0-3.4531 2.7969-6.25 6.25-6.25 4.7109-0.13281 7.832 5.4023 5.4219 9.375zm8.75-3.125h-4.7969c-0.4375-12.41-18.316-12.402-18.75 0h-34.375c-0.4375-12.41-18.316-12.402-18.75 0h-3.125c-2.5625 0-4.6406-2.2031-4.6875-4.9219l0.3125-2.8906h4.0312c1.918 0.046875 3.4922-1.8672 3.0625-3.7344l-0.9375-4.6875c-0.28125-1.4531-1.5781-2.5156-3.0625-2.5156h-1.0781c0.35547-0.35938 1.1914-0.5625 1.6562-0.73438 3.4961-0.32812 6.6914-3.8203 9.1719-6.0312 2.9844-2.6875 6.7969-4.1719 10.719-4.1719h12.062c4.2578-0.10156 9.0977-0.15234 12.781 2.3594 0 0 14.531 8.8906 14.531 8.8906 0.1875 0.125 0.39062 0.1875 0.60938 0.21875l17.594 2.3125c1.4531 0.1875 2.75 0.85938 3.7656 1.8438h-1.4375c-2.2539-0.078125-3.8633 2.5391-2.7969 4.5156l1.5625 3.125c0.53125 1.0781 1.6094 1.7344 2.7969 1.7344h2.1094c0 1.9062-0.79688 4.6875-2.9688 4.6875z"/>
  <path d="m59.375 61.906c-0.039062-2.0508-3.0859-2.0508-3.125 0 0.039062 2.0508 3.0859 2.0508 3.125 0z"/>
  <path d="m53.125 61.906c-0.039062-2.0508-3.0859-2.0508-3.125 0 0.039062 2.0508 3.0859 2.0508 3.125 0z"/>
  <path d="m40.625 61.906c-0.039062-2.0508-3.0859-2.0508-3.125 0 0.039062 2.0508 3.0859 2.0508 3.125 0z"/>
  <path d="m46.875 61.906c-0.039062-2.0508-3.0859-2.0508-3.125 0 0.039062 2.0508 3.0859 2.0508 3.125 0z"/>
  <path d="m60.156 62.531c-2.0508 0.039062-2.0508 3.0859 0 3.125 2.0508-0.039062 2.0508-3.0859 0-3.125z"/>
  <path d="m47.656 62.531c-2.0508 0.039062-2.0508 3.0859 0 3.125 2.0508-0.039062 2.0508-3.0859 0-3.125z"/>
  <path d="m41.406 62.531c-2.0508 0.039062-2.0508 3.0859 0 3.125 2.0508-0.039062 2.0508-3.0859 0-3.125z"/>
  <path d="m53.906 62.531c-2.0508 0.039062-2.0508 3.0859 0 3.125 2.0508-0.039062 2.0508-3.0859 0-3.125z"/>
  <path d="m65.625 48.469h-3.125c-0.86328 0-1.5625 0.69922-1.5625 1.5625v3.125c0 0.86328 0.69922 1.5625 1.5625 1.5625h3.125c4.1211-0.10547 4.1211-6.1445 0-6.25z"/>
 </g>
<text x="0.0" y="117.5" font-size="5.0" font-weight="bold" font-family="Arbeit Regular, Helvetica, Arial-Unicode, Arial, Sans-serif" fill="#000000">Created by LUTFI GANI AL ACHMAD</text><text x="0.0" y="122.5" font-size="5.0" font-weight="bold" font-family="Arbeit Regular, Helvetica, Arial-Unicode, Arial, Sans-serif" fill="#000000">from Noun Project</text></svg>