<svg xmlns="http://www.w3.org/2000/svg" version="1.1" viewBox="-5.0 -10.0 110.0 135.0">
 <g>
  <path d="m42.781 32.957 9.1406 0.007813 2.4453 0.015625-1.1328-3.5586c-0.125-0.38672-0.21484-0.84766-0.39453-1.2109-0.11719-0.20703-0.28906-0.38281-0.50391-0.49219-0.15234-0.085938-0.32422-0.13672-0.5-0.15234-0.58594-0.039062-1.1914-0.007812-1.7852-0.011718l-3.3086-0.003907h-3.2031c-0.54297 0-1.1133-0.03125-1.6562 0.007813-0.42969 0.17969-0.73437 0.35547-0.92187 0.80469l-1.5625 4.5938c0.35547 0.058594 0.76172 0 1.1211 0z"/>
  <path d="m81.648 57.77c-1.1445-0.875-2.4961-1.4336-3.9258-1.6211-0.43359-0.074219-0.87891-0.097657-1.3203-0.058594l-0.015625 0.003906c-2.3945 0.23828-4.3867 1.168-5.9336 3.0586-1.3125 1.625-1.9375 3.6992-1.7422 5.7812 0.035156 0.44531 0.10156 0.89062 0.19531 1.332 0.44141 1.7773 1.4648 3.3555 2.9023 4.4883 1.582 1.2617 3.4883 1.7656 5.4922 1.7031 2.2969-0.27344 4.3398-1.2266 5.793-3.0859h0.003906c1.3633-1.7031 1.9727-3.8906 1.6836-6.0547-0.26562-2.1914-1.3906-4.1875-3.1328-5.5469zm-1.4766 9.2812c-0.75781 0.98828-1.8438 1.4844-3.0469 1.6562-1.0938 0.027344-2.1016-0.21094-2.9844-0.88672-0.94141-0.73828-1.5508-1.8164-1.6992-3-0.12891-1.1367 0.18359-2.2812 0.87109-3.1914 0.81641-1.0273 1.9023-1.5039 3.1836-1.6484 1.0039-0.078125 2.0039 0.21484 2.8047 0.82422 0.98438 0.70703 1.625 1.7969 1.7617 3.0039 0.14062 1.1562-0.17969 2.3203-0.89062 3.2461z"/>
  <path d="m77.512 62.562c-0.375-0.14453-0.78125-0.19141-1.1797-0.12891-0.59375 0.22656-1.0977 0.51562-1.3633 1.1289-0.20703 0.48828-0.21094 1.043-0.003906 1.5352 0.20703 0.49219 0.60547 0.87891 1.1016 1.0703 0.35547 0.14453 0.78516 0.11719 1.1562 0.074219 0.58203-0.21484 1.0352-0.51953 1.3008-1.0977v0.003907c0.21484-0.47266 0.23047-1.0039 0.050781-1.4883-0.19141-0.49219-0.57422-0.88672-1.0625-1.0977z"/>
  <path d="m29.09 69.457c1.4414-1.7617 2.0469-3.8594 1.8164-6.125-0.23828-2.0781-1.2773-3.9766-2.8945-5.3008-1.5742-1.2734-3.7148-2.0859-5.7617-1.8867h-0.007812c-2.1914 0.16016-4.2266 1.1875-5.6602 2.8555-1.4492 1.6992-2.043 3.7852-1.8594 6.0039s1.2656 4.1172 2.957 5.5352c1.6094 1.3398 3.6758 2.0078 5.7656 1.8555 2.2773-0.23047 4.1836-1.1562 5.6445-2.9375zm-8.7773-1.5469c-0.94141-0.66406-1.6758-1.7578-1.8594-2.8984-0.1875-1.1406 0.015625-2.2695 0.6875-3.2109 0.78906-1.0977 1.8281-1.6641 3.1523-1.8789 1.0195-0.14844 2.1758 0.18359 3.0117 0.76172 0.99219 0.69922 1.6641 1.7656 1.8633 2.9648 0.17969 1.0742-0.0625 2.1758-0.67188 3.0742-0.77344 1.1055-1.8281 1.7031-3.1484 1.9336-1.0898 0.085938-2.1328-0.10547-3.0352-0.74219z"/>
  <path d="m23.598 62.719c-0.33984-0.16016-0.71875-0.22266-1.0938-0.1875-0.52734 0.14062-1.0195 0.37109-1.3086 0.86719-0.26172 0.45703-0.32031 1-0.16797 1.5 0.13672 0.4375 0.42969 0.80859 0.82422 1.043 0.37109 0.20703 0.79688 0.28906 1.2188 0.23828 0.5625-0.16797 1.0078-0.40625 1.2969-0.9375v-0.003907c0.25-0.43359 0.30078-0.95312 0.14062-1.4258-0.14844-0.47266-0.47656-0.86328-0.91016-1.0938z"/>
  <path d="m97.16 59.879c0-1.2227 0.085938-2.5117-0.035156-3.7227-0.15625-1.8398-0.95312-3.5664-2.25-4.8789-0.95312-0.95312-2.0977-1.6055-3.3555-2.0781-1.4023-0.52734-2.9414-0.77734-4.4102-1.0469l-10.566-1.5195-2.3438-0.21484c-0.46875-0.039063-0.96094-0.054688-1.4141-0.1875l0.003906-0.003907c-0.37891-0.10937-0.73047-0.29297-1.0312-0.53906-0.49219-0.41016-0.92969-1.0039-1.3711-1.4805l-2.8047-3.0039-2.8555-3.1289c-0.37891-0.40625-0.73828-0.86328-1.1602-1.2227-0.79688-0.67187-1.6914-1.2266-2.6484-1.6445-0.94531-0.44531-1.9531-0.73828-2.9922-0.87109-1.0977-0.11719-2.2422-0.058594-3.3438-0.058594h-24.156l-0.97266 0.015625c-1.2891 0.11719-2.543 0.46094-3.6602 1.1289-2.1406 1.2812-3.8086 3.4375-5.4336 5.3008l-4.3789 5.1289-0.20312 0.23828h-7.9453c-0.58594 0-1.1484-0.007813-1.7227 0.11719-0.74609 0.16797-1.4258 0.54688-1.9648 1.082-0.80469 0.80078-1.2578 1.8906-1.2578 3.0234l0.007812 9.6055c-0.91016 0.035156-1.5352 0.13281-2.1914 0.83984-0.47656 0.54297-0.73047 1.2539-0.70312 1.9766 0.042969 0.79688 0.39844 1.5391 0.98828 2.0742 0.35547 0.32422 0.78906 0.54688 1.2578 0.65625 0.47656 0.089844 0.99219 0.066406 1.4805 0.070312h2.1406l7.8633 0.007813c-0.23828-2.5508 0.23828-5.0547 1.918-7.0625 1.6211-1.9375 3.8398-3.1641 6.3633-3.375v-0.003907c2.4375-0.20312 4.8555 0.56641 6.7305 2.1406 1.8906 1.5781 3.0625 3.8516 3.2578 6.3047 0.054688 0.66016 0.027344 1.3242-0.078125 1.9766l35.762 0.011718h-0.003906c-0.10156-0.92969-0.085938-1.8711 0.050781-2.8008 0.5-2.5859 1.8594-4.6992 4.0469-6.1797h-0.003906c4.1094-2.7383 9.6562-1.6602 12.438 2.4219 1.3672 2.0352 1.7305 4.1406 1.6094 6.5508h10.402c0.48438 0 1 0.027344 1.4727-0.058594 1.3203-0.28516 2.2695-1.4375 2.3008-2.7891 0.023437-0.76953-0.27734-1.5156-0.83203-2.0508-0.59375-0.58594-1.1992-0.72656-2.0039-0.75zm-88.312-5.832c-0.36719 0.58203-0.91406 0.86719-1.5664 1.0117-0.51953 0-1-0.0625-1.4297-0.37891-0.48047-0.32422-0.80469-0.83594-0.89453-1.4141-0.089843-0.57422 0.0625-1.1602 0.41797-1.6211 0.40234-0.51562 0.91016-0.74219 1.5469-0.82422 0.42969 0.011719 0.81641 0.058594 1.1914 0.27734 0.5 0.30469 0.85938 0.79297 1 1.3594 0.125 0.54297 0.027344 1.1172-0.26562 1.5898zm5.3984-0.14062c-0.29297 0.57812-0.82031 0.90234-1.4219 1.0977-0.47266 0.09375-0.95703 0.03125-1.3906-0.17969-0.47266-0.21094-0.84375-0.60938-1.0234-1.0977-0.20703-0.57031-0.18359-1.1953 0.066406-1.7461 0.29688-0.60156 0.84766-0.91016 1.4609-1.1133 0.43359-0.046876 0.87891-0.039063 1.2852 0.14844 0.51953 0.24609 0.92188 0.69141 1.1133 1.2344 0.19141 0.54297 0.15625 1.1406-0.09375 1.6562zm31.312-16.914 12.23 0.03125c1.2695 0.082031 2.5078 0.64844 3.5273 1.3867 1.1445 0.83203 2.082 2.0938 3.043 3.1367l4.457 4.8672-0.050781 0.085938h-12.84l-8.2109 0.042969h-1.5859c-0.16016 0-0.4375 0.035156-0.57812-0.027344zm-17.715 2.8516c1.5469-1.5742 3.3516-2.6055 5.5703-2.8047 0.6875-0.0625 1.4023-0.03125 2.0938-0.035156h7.4102v9.5078l-11.668-0.007813-7.7227-0.015625c1.3398-2.293 2.4219-4.7148 4.3164-6.6445zm14.453 14.406-4.6875 0.015625v-1.7773h4.6992zm9.1367 0.03125h-4.6055v-1.7734l4.6055 0.007813zm23.391-2.918h-55.695v-2.0859l55.695-0.007813zm18.414 6.043c-0.042969 0.16797-0.12109 0.32812-0.23828 0.46094-0.20703 0.24609-0.44141 0.29687-0.74219 0.32812h-1.7539c-0.875 0-1.6445 0.023438-2.3945-0.51953-0.55859-0.40625-1.0273-1.1133-1.125-1.8047-0.03125-0.36328-0.035156-0.72656-0.019531-1.0898 0-0.55078-0.11719-1.3984 0.23828-1.8438 0.23047-0.28906 0.51953-0.38281 0.875-0.42188h2.5469c0.54688 0 1.2617-0.070313 1.7773 0.10938l0.003906 0.003906c0.13672 0.039063 0.26562 0.10156 0.38281 0.17969 0.17188 0.125 0.42969 0.40625 0.45313 0.625 0.066406 0.625-0.007813 1.332-0.007813 1.9648 0.003906 0.63281 0.085937 1.3828 0.003906 2.0078z"/>
 </g>
<text x="0.0" y="117.5" font-size="5.0" font-weight="bold" font-family="Arbeit Regular, Helvetica, Arial-Unicode, Arial, Sans-serif" fill="#000000">Created by No Po</text><text x="0.0" y="122.5" font-size="5.0" font-weight="bold" font-family="Arbeit Regular, Helvetica, Arial-Unicode, Arial, Sans-serif" fill="#000000">from Noun Project</text></svg>